P1 5 5 10010
1 1 1 1# 1
11111 1 # dfhdfhdfjh
1 #j1 1 1 1
11 1 111 1 1 1